<svg width="512" height="512" viewBox="0 0 512 512" fill="none" xmlns="http://www.w3.org/2000/svg">
<path d="M274.405 12.873C275.658 12.8718 275.658 12.8718 276.935 12.8706C277.891 12.8674 278.846 12.8643 279.831 12.8611C280.855 12.8631 281.879 12.8651 282.934 12.8672C284.003 12.8662 285.073 12.8653 286.175 12.8643C288.44 12.8636 290.705 12.8654 292.97 12.8696C296.394 12.8749 299.817 12.8697 303.24 12.8633C330.651 12.8498 330.651 12.8498 336 14C339.653 19.4799 337.584 26.7454 336.462 32.9982C335.811 36.013 335.106 39.01 334.382 42.0081C331.904 52.7279 329.672 63.4688 327.61 74.2751C327.464 75.0409 327.318 75.8066 327.167 76.5955C326.233 81.4913 325.306 86.3883 324.38 91.2856C323.537 95.7398 322.689 100.193 321.843 104.647C320.205 113.261 318.573 121.877 316.943 130.493C315.619 137.491 314.293 144.49 312.966 151.488C296.098 240.465 279.288 329.457 255.874 460.396C255.62 461.828 255.366 463.259 255.111 464.69C254.465 468.317 253.841 471.945 253.247 475.58C253.121 476.337 252.995 477.093 252.864 477.873C252.627 479.296 252.396 480.72 252.173 482.145C251.368 486.919 250.457 491.778 248 496C244.012 498.808 240.734 499.375 235.922 499.372C234.744 499.379 233.566 499.385 232.352 499.391C231.092 499.382 229.833 499.373 228.535 499.363C226.575 499.364 226.575 499.364 224.576 499.365C221.816 499.365 219.057 499.354 216.297 499.336C212.776 499.314 209.255 499.313 205.733 499.32C202.355 499.324 198.976 499.312 195.598 499.301C194.34 499.302 193.083 499.303 191.787 499.304C185.822 499.255 180.619 499.08 175 497C173.517 490.477 174.72 485.08 176.144 478.618C176.618 476.364 177.091 474.109 177.562 471.854C177.804 470.709 178.046 469.565 178.296 468.386C179.367 463.236 180.34 458.07 181.304 452.9C181.59 451.375 181.59 451.375 181.882 449.819C182.489 446.584 183.093 443.348 183.697 440.112C184.144 437.726 184.591 435.341 185.038 432.955C186.119 427.185 187.198 421.414 188.277 415.643C189.556 408.8 190.837 401.958 192.118 395.116C194.445 382.686 196.771 370.257 199.095 357.827C201.367 345.682 203.639 333.538 205.912 321.393C206.053 320.64 206.194 319.887 206.339 319.111C207.051 315.305 207.764 311.499 208.476 307.693C214.579 275.09 220.679 242.485 226.778 209.88C229.028 197.85 231.279 185.819 233.53 173.789C234.12 170.632 234.71 167.476 235.301 164.32C236.93 155.613 238.559 146.905 240.188 138.198C241.019 133.755 241.85 129.312 242.682 124.869C242.84 124.024 242.998 123.179 243.161 122.309C245.116 111.856 247.071 101.404 249.025 90.9512C249.981 85.8393 250.937 80.7275 251.893 75.6158C252.946 69.984 253.999 64.3521 255.051 58.7201C255.461 56.5307 255.873 54.3417 256.288 52.1531C257.245 47.1021 258.169 42.05 259.019 36.9799C259.185 36.0261 259.351 35.0723 259.522 34.0895C259.826 32.3338 260.118 30.5758 260.392 28.8151C261.39 23.1683 263.125 18.3409 267 14C269.659 12.9469 271.585 13.0219 274.405 12.873Z" fill="white"/>
<path d="M439 100C444.228 103.664 447.802 108.092 451.188 113.434C451.648 114.14 452.109 114.847 452.583 115.575C454.066 117.856 455.533 120.146 457 122.438C458.021 124.017 459.043 125.595 460.065 127.173C462.099 130.313 464.128 133.457 466.154 136.603C468.658 140.484 471.203 144.336 473.77 148.176C474.809 149.738 474.809 149.738 475.869 151.332C477.126 153.22 478.389 155.103 479.658 156.982C482.686 161.565 485.149 165.523 486 171C485.253 174.008 484.248 174.82 481.742 176.641C475.47 180.161 469.135 183.492 462.686 186.676C449.248 193.314 435.996 200.321 422.875 207.562C412.857 213.086 402.687 218.297 392.5 223.5C381.994 228.87 371.495 234.244 361.125 239.875C360.277 240.332 359.43 240.789 358.557 241.26C349.753 245.931 349.753 245.931 343 253C343.215 257.952 344.691 260.403 348 264C350.946 266.042 350.946 266.042 354.313 267.828C354.925 268.167 355.537 268.507 356.168 268.856C362.395 272.279 368.713 275.532 375.045 278.754C384.81 283.727 394.531 288.764 404.125 294.063C413.123 299.03 422.23 303.766 431.372 308.461C440.486 313.146 449.521 317.955 458.488 322.918C464.582 326.277 470.747 329.445 477.081 332.328C481.121 334.247 484.013 335.92 486 340C484.868 347.126 480.71 353.061 476.75 358.906C476.137 359.83 475.523 360.753 474.891 361.705C472.937 364.643 470.969 367.572 469 370.5C467.069 373.392 465.141 376.287 463.213 379.181C461.952 381.073 460.688 382.963 459.422 384.852C456.486 389.237 453.578 393.634 450.75 398.09C450.001 399.267 450.001 399.267 449.237 400.469C448.318 401.921 447.405 403.376 446.499 404.837C444.361 408.215 442.498 410.972 439 413C433.651 414.146 430.283 411.721 425.926 408.945C417.72 403.489 417.72 403.489 414.367 401.232C408.702 397.431 402.952 393.772 397.188 390.125C389.764 385.423 382.402 380.646 375.106 375.748C365.184 369.096 355.167 362.588 345.161 356.064C342.195 354.128 339.235 352.183 336.277 350.234C332.205 347.555 328.115 344.906 324.003 342.286C322.261 341.167 320.537 340.02 318.816 338.867C312.416 334.873 307.284 334.471 299.773 334.887C298.401 334.943 298.401 334.943 297 335C296 334 296 334 295.818 330.631C295.892 325.279 296.898 320.149 297.908 314.907C298.112 313.821 298.315 312.735 298.525 311.616C299.198 308.028 299.882 304.442 300.566 300.855C301.043 298.328 301.52 295.8 301.996 293.272C302.998 287.957 304.004 282.644 305.015 277.331C306.038 271.951 307.058 266.57 308.073 261.189C308.196 260.533 308.32 259.878 308.447 259.203C308.696 257.884 308.944 256.565 309.193 255.246C311.465 243.197 313.755 231.152 316.064 219.111C317.265 212.848 318.458 206.584 319.637 200.317C320.263 197.009 320.898 193.703 321.538 190.397C321.817 188.945 322.092 187.491 322.362 186.037C325.565 168.82 325.565 168.82 333.563 163.312C334.528 162.646 335.494 161.98 336.488 161.293C342.345 157.431 348.299 153.72 354.246 150C358.318 147.445 362.329 144.814 366.313 142.125C372.411 138.014 378.598 134.058 384.813 130.125C395.941 123.075 406.994 115.908 417.793 108.359C418.381 107.949 418.968 107.538 419.574 107.115C421.121 106.028 422.662 104.934 424.203 103.84C433.134 97.9649 433.134 97.9649 439 100Z" fill="white"/>
<path d="M81 100C84.1218 101.622 86.9797 103.569 89.875 105.563C91.6501 106.751 93.4262 107.939 95.2031 109.125C96.1409 109.755 97.0787 110.386 98.0449 111.035C103.189 114.455 108.412 117.75 113.625 121.063C121.486 126.078 129.299 131.153 137.041 136.35C146.965 143.005 156.984 149.516 166.995 156.039C169.649 157.771 172.3 159.509 174.949 161.25C191.576 173.556 191.576 173.556 210.75 177.562C211.735 177.461 212.72 177.359 213.734 177.254C214.482 177.17 215.23 177.086 216 177C216.276 184.27 215.506 190.917 214.06 198.032C213.853 199.088 213.647 200.143 213.434 201.23C212.752 204.702 212.058 208.171 211.363 211.641C210.881 214.088 210.4 216.535 209.919 218.983C208.781 224.774 207.635 230.563 206.484 236.352C204.322 247.23 202.173 258.111 200.031 268.993C199.545 271.463 199.058 273.932 198.57 276.401C195.623 291.327 192.732 306.247 190.553 321.308C188.957 331.866 186.461 341.924 178 349C175.481 350.763 172.892 352.409 170.293 354.051C168.759 355.031 167.225 356.013 165.692 356.995C164.911 357.494 164.13 357.993 163.325 358.507C159.718 360.823 156.14 363.181 152.562 365.543C151.152 366.473 149.741 367.403 148.33 368.333C147.623 368.799 146.916 369.265 146.188 369.745C133.072 378.391 119.907 386.948 106.656 395.387C100.077 399.579 93.5403 403.835 87.012 408.106C85.8633 408.856 85.8633 408.856 84.6914 409.621C83.6889 410.277 83.6889 410.277 82.6662 410.947C79.2267 413.121 77.098 413.619 73 413C66.4397 408.894 62.7901 401.105 58.8789 394.664C55.6851 389.432 52.2882 384.341 48.875 379.25C48.2722 378.35 47.6694 377.449 47.0483 376.521C45.3673 374.013 43.684 371.506 42 369C39.3214 365.008 36.6558 361.007 34 357C33.34 356.025 32.68 355.051 32 354.047C31.3606 353.083 30.7212 352.118 30.0625 351.125C29.4966 350.282 28.9307 349.439 28.3476 348.57C26.7498 345.523 25.9955 343.459 26 340C29.6986 334.79 35.2875 332.611 40.9375 329.938C48.6284 326.199 56.2055 322.329 63.6875 318.188C71.892 313.658 80.168 309.291 88.5 305C98.5365 299.826 108.484 294.517 118.379 289.078C123.595 286.213 128.836 283.396 134.081 280.583C146.271 274.057 146.271 274.057 158.375 267.375C159.393 266.805 160.412 266.235 161.461 265.648C164.045 263.971 166.021 262.361 168 260C168.575 256.046 168.594 253.913 166.395 250.531C163.631 247.61 160.695 245.804 157.187 243.938C156.152 243.371 156.152 243.371 155.096 242.792C148.081 238.978 140.983 235.315 133.893 231.643C127.42 228.286 121.009 224.835 114.625 221.312C101.788 214.245 88.7277 207.612 75.6896 200.926C69.6333 197.817 63.5981 194.67 57.5869 191.475C53.5228 189.317 49.4398 187.204 45.332 185.129C44.3713 184.639 43.4107 184.149 42.4209 183.644C40.5683 182.7 38.7111 181.765 36.8486 180.84C27.8845 176.248 27.8845 176.248 26 172C26.7974 165.407 30.5949 160.215 34.5 155.062C38.8292 149.151 42.8601 143.161 46.625 136.875C50.4255 130.54 54.355 124.332 58.5012 118.217C61.6085 113.63 64.5182 108.946 67.332 104.172C71.2896 99.0187 74.8277 98.2926 81 100Z" fill="white"/>
<path d="M294 348C294.66 348 295.32 348 296 348C297.531 356.301 298.494 364.519 299.062 372.938C299.145 374.113 299.227 375.289 299.312 376.501C300.031 386.996 300.665 397.486 301 408C301.034 408.948 301.068 409.897 301.103 410.874C301.198 413.812 301.26 416.749 301.312 419.688C301.342 420.572 301.372 421.457 301.403 422.368C301.488 431.905 297.976 439.417 292.25 446.875C291.364 448.068 290.48 449.262 289.598 450.457C289.161 451.046 288.724 451.634 288.274 452.241C285.659 455.851 283.288 459.624 280.887 463.379C278.812 466.261 276.668 468.654 274 471C273.01 471 272.02 471 271 471C270.676 462.033 271.602 453.624 273.187 444.812C273.31 444.115 273.432 443.417 273.559 442.698C276.525 425.824 279.867 409.015 283.19 392.208C283.623 390.011 284.053 387.813 284.483 385.616C285.173 382.095 285.872 378.576 286.578 375.058C286.964 373.127 287.341 371.195 287.718 369.262C289.211 361.89 291.193 354.982 294 348Z" fill="white"/>
<path d="M240 42C240.597 53.6895 238.776 64.3902 236.562 75.8125C236.202 77.7187 235.843 79.6251 235.485 81.5317C234.921 84.5376 234.354 87.5432 233.783 90.5478C232.344 98.1188 230.963 105.699 229.605 113.285C229.013 116.579 228.42 119.873 227.826 123.166C227.446 125.281 227.068 127.397 226.692 129.513C221.948 156.155 221.948 156.155 219 163C217.515 163.495 217.515 163.495 216 164C213.999 158.93 213.603 154.387 213.402 149.016C213.363 148.16 213.324 147.304 213.284 146.423C213.16 143.699 213.048 140.975 212.937 138.25C212.821 135.54 212.702 132.83 212.581 130.12C212.506 128.439 212.434 126.759 212.367 125.078C212.154 120.123 211.737 115.221 211.22 110.29C210.728 105.162 210.774 100.021 210.75 94.875C210.729 93.7471 210.709 92.6191 210.687 91.457C210.636 80.4481 213.579 74.0545 219.75 65.125C220.285 64.3385 220.82 63.552 221.371 62.7417C222.907 60.4892 224.453 58.2444 226 56C226.727 54.9275 227.454 53.855 228.203 52.75C235.562 42 235.562 42 240 42Z" fill="white"/>
</svg>
