<svg xmlns="http://www.w3.org/2000/svg" xmlns:xlink="http://www.w3.org/1999/xlink" viewBox="0 0 512 512" width="512" height="512" style="width: 100%; height: 100%; transform: translate3d(0,0,0); content-visibility: visible;" preserveAspectRatio="xMidYMid meet"><defs><clipPath id="__lottie_element_2"><rect width="512" height="512" x="0" y="0"></rect></clipPath></defs><g clip-path="url(#__lottie_element_2)"><g style="display: block;" transform="matrix(1,0,0,1,256,256)" opacity="1"><g opacity="1" transform="matrix(1,0,0,1,0,0)"><path fill="rgb(68,163,221)" fill-opacity="1" d=" M28.858999252319336,-216 C28.858999252319336,-216 -28.858999252319336,-216 -28.858999252319336,-216 C-85.60900115966797,-216 -112.39099884033203,-208.87100219726562 -137.4219970703125,-195.48399353027344 C-162.4530029296875,-182.0970001220703 -182.0970001220703,-162.4530029296875 -195.48399353027344,-137.4219970703125 C-208.87100219726562,-112.39099884033203 -216,-85.60900115966797 -216,-28.858999252319336 C-216,-28.858999252319336 -216,28.858999252319336 -216,28.858999252319336 C-216,85.60900115966797 -208.87100219726562,112.39099884033203 -195.48399353027344,137.4219970703125 C-182.0970001220703,162.4530029296875 -162.4530029296875,182.0970001220703 -137.4219970703125,195.48399353027344 C-112.39099884033203,208.87100219726562 -85.60900115966797,216 -28.858999252319336,216 C-28.858999252319336,216 28.858999252319336,216 28.858999252319336,216 C85.60900115966797,216 112.39099884033203,208.87100219726562 137.4219970703125,195.48399353027344 C162.4530029296875,182.0970001220703 182.0970001220703,162.4530029296875 195.48399353027344,137.4219970703125 C208.87100219726562,112.39099884033203 216,85.60900115966797 216,28.858999252319336 C216,28.858999252319336 216,-28.858999252319336 216,-28.858999252319336 C216,-85.60900115966797 208.87100219726562,-112.39099884033203 195.48399353027344,-137.4219970703125 C182.0970001220703,-162.4530029296875 162.4530029296875,-182.0970001220703 137.4219970703125,-195.48399353027344 C112.39099884033203,-208.87100219726562 85.60900115966797,-216 28.858999252319336,-216z"></path></g></g><g style="mix-blend-mode: soft-light; display: block;" transform="matrix(1,0,0,1,208.56300354003906,272.5)" opacity="1"><g opacity="1" transform="matrix(1,0,0,1,0,0)"><path fill="rgb(255,255,255)" fill-opacity="0.5" d=" M2.0390000343322754,-82.5 C2.0390000343322754,-82.5 -91.86900329589844,-82.5 -91.86900329589844,-82.5 C-93.6520004272461,-82.5 -95.40699768066406,-82.0510025024414 -96.9739990234375,-81.19400024414062 C-102.16200256347656,-78.35600280761719 -104.08200073242188,-71.822998046875 -101.26300048828125,-66.60099792480469 C-101.26300048828125,-66.60099792480469 -26.23200035095215,72.37899780273438 -26.23200035095215,72.37899780273438 C-22.86400032043457,78.61699676513672 -16.375999450683594,82.5 -9.322999954223633,82.5 C-9.322999954223633,82.5 102.56199645996094,82.5 102.56199645996094,82.5 C102.56199645996094,82.5 18.947999954223633,-72.37899780273438 18.947999954223633,-72.37899780273438 C15.579999923706055,-78.61699676513672 9.092000007629395,-82.5 2.0390000343322754,-82.5z"></path></g></g><g style="display: block;" transform="matrix(1,0,0,1,208.56300354003906,272.5)" opacity="1"><g opacity="1" transform="matrix(1,0,0,1,0,0)"><path fill="rgb(255,255,255)" fill-opacity="0.6" d=" M2.0390000343322754,-82.5 C2.0390000343322754,-82.5 -91.86900329589844,-82.5 -91.86900329589844,-82.5 C-93.6520004272461,-82.5 -95.40699768066406,-82.0510025024414 -96.9739990234375,-81.19400024414062 C-102.16200256347656,-78.35600280761719 -104.08200073242188,-71.822998046875 -101.26300048828125,-66.60099792480469 C-101.26300048828125,-66.60099792480469 -26.23200035095215,72.37899780273438 -26.23200035095215,72.37899780273438 C-22.86400032043457,78.61699676513672 -16.375999450683594,82.5 -9.322999954223633,82.5 C-9.322999954223633,82.5 102.56199645996094,82.5 102.56199645996094,82.5 C102.56199645996094,82.5 18.947999954223633,-72.37899780273438 18.947999954223633,-72.37899780273438 C15.579999923706055,-78.61699676513672 9.092000007629395,-82.5 2.0390000343322754,-82.5z"></path></g></g><g style="display: block;" transform="matrix(1,0,0,1,297.3710021972656,272.5)" opacity="1"><g opacity="1" transform="matrix(1,0,0,1,0,0)"><path fill="rgb(255,255,255)" fill-opacity="1" d=" M103.04100036621094,-81.19400024414062 C101.4739990234375,-82.0510025024414 99.71900177001953,-82.5 97.93599700927734,-82.5 C97.93599700927734,-82.5 4.0269999504089355,-82.5 4.0269999504089355,-82.5 C4.0269999504089355,-82.5 3.3469998836517334,-82.48799896240234 3.3469998836517334,-82.48799896240234 C-3.440999984741211,-82.24700164794922 -9.621999740600586,-78.41600036621094 -12.880999565124512,-72.37899780273438 C-12.880999565124512,-72.37899780273438 -90.94400024414062,72.21600341796875 -90.94400024414062,72.21600341796875 C-92.4229965209961,74.7699966430664 -93.57499694824219,76.43499755859375 -94.39900207519531,77.20999908447266 C-97.15299987792969,79.8030014038086 -99.75199890136719,80.41300201416016 -100.45600128173828,80.60299682617188 C-102.12100219726562,81.0530014038086 -103.61599731445312,80.91400146484375 -103.802001953125,80.89700317382812 C-105.5469970703125,80.73799896240234 -107.18299865722656,80.19999694824219 -108.62899780273438,79.36399841308594 C-105.74299621582031,81.25399780273438 -102.36199951171875,82.36199951171875 -98.81400299072266,82.48799896240234 C-98.81400299072266,82.48799896240234 -98.13200378417969,82.5 -98.13200378417969,82.5 C-98.13200378417969,82.5 -94.75199890136719,82.5 -94.75199890136719,82.5 C-94.75199890136719,82.5 15.390000343322754,82.5 15.390000343322754,82.5 C15.390000343322754,82.5 16.070999145507812,82.48799896240234 16.070999145507812,82.48799896240234 C22.858999252319336,82.24700164794922 29.040000915527344,78.41600036621094 32.29899978637695,72.37899780273438 C32.29899978637695,72.37899780273438 107.33000183105469,-66.60099792480469 107.33000183105469,-66.60099792480469 C107.33000183105469,-66.60099792480469 107.572998046875,-67.0790023803711 107.572998046875,-67.0790023803711 C110.02899932861328,-72.21499633789062 108.0719985961914,-78.44200134277344 103.04100036621094,-81.19400024414062z"></path></g></g></g></svg>