<svg width="80" height="80" viewBox="0 0 80 80" fill="none" xmlns="http://www.w3.org/2000/svg">
<g clip-path="url(#clip0_99_122)">
<mask id="mask0_99_122" style="mask-type:luminance" maskUnits="userSpaceOnUse" x="0" y="0" width="80" height="80">
<path d="M80 40C80 17.9086 62.0914 0 40 0C17.9086 0 0 17.9086 0 40C0 62.0914 17.9086 80 40 80C62.0914 80 80 62.0914 80 40Z" fill="white"/>
<path d="M60 30H20C14.4772 30 10 34.4772 10 40C10 45.5228 14.4772 50 20 50H60C65.5228 50 70 45.5228 70 40C70 34.4772 65.5228 30 60 30Z" fill="black"/>
</mask>
<g mask="url(#mask0_99_122)">
<path d="M80 0H0V80H80V0Z" fill="#F23F43"/>
</g>
</g>
<defs>
<clipPath id="clip0_99_122">
<rect width="80" height="80" fill="white"/>
</clipPath>
</defs>
</svg>
