<svg width="74" height="64" viewBox="0 0 74 64" fill="none" xmlns="http://www.w3.org/2000/svg">
<path fill-rule="evenodd" clip-rule="evenodd" d="M66.5667 7.07794C66.5667 7.67794 66.8333 8.24461 67.3667 8.51128C69.2 9.44461 70.3667 11.2446 70.8333 13.2446C71.8333 17.3779 73.3333 25.5779 73.3333 36.8779V53.2446C73.3263 55.5598 72.5395 57.8051 71.0998 59.6182C69.6601 61.4314 67.6516 62.7066 65.3982 63.2381C63.1449 63.7697 60.7782 63.5266 58.6799 62.548C56.5817 61.5695 54.8743 59.9126 53.8333 57.8446L47.9667 46.1446C47.5876 45.4237 46.9774 44.851 46.2339 44.5186C45.4903 44.1861 44.6567 44.1131 43.8667 44.3113C41.9667 44.7446 39.3333 45.2113 36.6667 45.2113C34 45.2113 31.3333 44.7446 29.4667 44.3113C27.8333 43.9446 26.1333 44.6446 25.3667 46.1446L19.5 57.8446C18.459 59.9126 16.7516 61.5695 14.6534 62.548C12.5552 63.5266 10.1885 63.7697 7.93512 63.2381C5.68177 62.7066 3.67322 61.4314 2.23355 59.6182C0.793875 57.8051 0.00703996 55.5598 0 53.2446V36.8779C0 25.6113 1.53333 17.3779 2.5 13.2113C3 11.2113 4.13333 9.44461 5.96667 8.54461C6.22481 8.40053 6.43692 8.18634 6.57848 7.92681C6.72004 7.66728 6.78529 7.37299 6.76667 7.07794C6.76667 4.74461 8.36667 2.67794 10.7667 2.17794L20.5333 0.111277C22.2 -0.222057 23.8667 0.311276 25.0667 1.44461C26.2333 2.57794 27.6667 3.81128 29.3333 3.71128C34.2189 3.45744 39.1144 3.45744 44 3.71128C45.6667 3.81128 47.1 2.57794 48.2667 1.41128C49.4333 0.311276 51.1333 -0.25539 52.8 0.111277L62.6 2.17794C64.9333 2.67794 66.5667 4.77794 66.5667 7.07794ZM63.3333 18.5446C63.3333 19.8707 62.8065 21.1425 61.8689 22.0801C60.9312 23.0178 59.6594 23.5446 58.3333 23.5446C57.0073 23.5446 55.7355 23.0178 54.7978 22.0801C53.8601 21.1425 53.3333 19.8707 53.3333 18.5446C53.3333 17.2185 53.8601 15.9468 54.7978 15.0091C55.7355 14.0714 57.0073 13.5446 58.3333 13.5446C59.6594 13.5446 60.9312 14.0714 61.8689 15.0091C62.8065 15.9468 63.3333 17.2185 63.3333 18.5446ZM48.3333 33.5446C49.6594 33.5446 50.9312 33.0178 51.8689 32.0801C52.8065 31.1425 53.3333 29.8707 53.3333 28.5446C53.3333 27.2185 52.8065 25.9468 51.8689 25.0091C50.9312 24.0714 49.6594 23.5446 48.3333 23.5446C47.0073 23.5446 45.7355 24.0714 44.7978 25.0091C43.8601 25.9468 43.3333 27.2185 43.3333 28.5446C43.3333 29.8707 43.8601 31.1425 44.7978 32.0801C45.7355 33.0178 47.0073 33.5446 48.3333 33.5446ZM13.3333 16.8779C13.3333 15.9939 13.6845 15.146 14.3096 14.5209C14.9348 13.8958 15.7826 13.5446 16.6667 13.5446C17.5507 13.5446 18.3986 13.8958 19.0237 14.5209C19.6488 15.146 20 15.9939 20 16.8779V20.2113H23.3333C24.2174 20.2113 25.0652 20.5625 25.6904 21.1876C26.3155 21.8127 26.6667 22.6606 26.6667 23.5446C26.6667 24.4287 26.3155 25.2765 25.6904 25.9016C25.0652 26.5268 24.2174 26.8779 23.3333 26.8779H20V30.2113C20 31.0953 19.6488 31.9432 19.0237 32.5683C18.3986 33.1934 17.5507 33.5446 16.6667 33.5446C15.7826 33.5446 14.9348 33.1934 14.3096 32.5683C13.6845 31.9432 13.3333 31.0953 13.3333 30.2113V26.8779H10C9.11595 26.8779 8.2681 26.5268 7.64298 25.9016C7.01786 25.2765 6.66667 24.4287 6.66667 23.5446C6.66667 22.6606 7.01786 21.8127 7.64298 21.1876C8.2681 20.5625 9.11595 20.2113 10 20.2113H13.3333V16.8779Z" fill="#6FA37F"/>
</svg>
