<svg width="47" height="27" viewBox="0 0 47 27" fill="none" xmlns="http://www.w3.org/2000/svg">
<path d="M0.985994 1.17976C1.60909 0.569003 2.44682 0.226902 3.31933 0.226902C4.19184 0.226902 5.02956 0.569003 5.65266 1.17976L23.3193 18.8131L40.986 1.14643C41.2873 0.799782 41.6571 0.519158 42.072 0.322159C42.4869 0.125159 42.9381 0.016036 43.3972 0.00163817C43.8563 -0.0127597 44.3134 0.0678775 44.7398 0.23849C45.1663 0.409102 45.5529 0.666008 45.8753 0.993087C46.1978 1.32017 46.4492 1.71036 46.6138 2.13919C46.7783 2.56802 46.8524 3.02623 46.8315 3.48507C46.8106 3.94391 46.6951 4.39347 46.4922 4.80556C46.2894 5.21765 46.0035 5.58336 45.6527 5.87976L25.6527 25.8798C25.0296 26.4905 24.1918 26.8326 23.3193 26.8326C22.4468 26.8326 21.6091 26.4905 20.986 25.8798L0.985994 5.87976C0.673566 5.56988 0.425585 5.20121 0.256356 4.79502C0.0871267 4.38882 0 3.95313 0 3.51309C0 3.07305 0.0871267 2.63737 0.256356 2.23117C0.425585 1.82497 0.673566 1.4563 0.985994 1.14643V1.17976Z" fill="#ABABAB"/>
</svg>
