<svg width="81" height="80" viewBox="0 0 81 80" fill="none" xmlns="http://www.w3.org/2000/svg">
<path d="M40.5001 6.6665C41.3841 6.6665 42.232 7.01769 42.8571 7.64281C43.4822 8.26794 43.8334 9.11578 43.8334 9.99984V45.2998L54.8334 34.2998C55.1348 33.9532 55.5045 33.6726 55.9194 33.4756C56.3343 33.2786 56.7855 33.1694 57.2446 33.155C57.7037 33.1407 58.1608 33.2213 58.5872 33.3919C59.0137 33.5625 59.4003 33.8194 59.7228 34.1465C60.0452 34.4736 60.2966 34.8638 60.4612 35.2926C60.6257 35.7214 60.6999 36.1796 60.679 36.6385C60.658 37.0973 60.5425 37.5469 60.3397 37.959C60.1368 38.3711 59.851 38.7368 59.5001 39.0332L42.8334 55.6998C42.2103 56.3106 41.3726 56.6527 40.5001 56.6527C39.6276 56.6527 38.7898 56.3106 38.1667 55.6998L21.5001 39.0332C21.1492 38.7368 20.8634 38.3711 20.6605 37.959C20.4576 37.5469 20.3421 37.0973 20.3212 36.6385C20.3003 36.1796 20.3744 35.7214 20.539 35.2926C20.7035 34.8638 20.9549 34.4736 21.2774 34.1465C21.5999 33.8194 21.9865 33.5625 22.4129 33.3919C22.8394 33.2213 23.2965 33.1407 23.7556 33.155C24.2147 33.1694 24.6658 33.2786 25.0807 33.4756C25.4957 33.6726 25.8654 33.9532 26.1667 34.2998L37.1667 45.2998V9.99984C37.1667 9.11578 37.5179 8.26794 38.1431 7.64281C38.7682 7.01769 39.616 6.6665 40.5001 6.6665ZM10.5001 66.6665C9.61603 66.6665 8.76818 67.0177 8.14306 67.6428C7.51794 68.2679 7.16675 69.1158 7.16675 69.9998C7.16675 70.8839 7.51794 71.7317 8.14306 72.3569C8.76818 72.982 9.61603 73.3332 10.5001 73.3332H70.5001C71.3841 73.3332 72.232 72.982 72.8571 72.3569C73.4822 71.7317 73.8334 70.8839 73.8334 69.9998C73.8334 69.1158 73.4822 68.2679 72.8571 67.6428C72.232 67.0177 71.3841 66.6665 70.5001 66.6665H10.5001Z" fill="#58e158"/>
</svg>
